<?xml version="1.0" standalone="no"?>
<!DOCTYPE svg PUBLIC "-//W3C//DTD SVG 1.1//EN" "http://www.w3.org/Graphics/SVG/1.1/DTD/svg11.dtd" >
<svg xmlns="http://www.w3.org/2000/svg">
<metadata></metadata>
<defs>
<font id="guardian_iconsregular" horiz-adv-x="880" >
<font-face units-per-em="880" ascent="799" descent="-81" />
<missing-glyph horiz-adv-x="220" />
<glyph unicode=" "  horiz-adv-x="220" />
<glyph unicode="&#x09;" horiz-adv-x="220" />
<glyph unicode="&#xa0;" horiz-adv-x="220" />
<glyph unicode="&#x25fc;" horiz-adv-x="500" d="M0 0z" />
<glyph unicode="&#xe000;" d="M839 21l-39 -38l-360 294l-360 -294l-39 38l379 379h40zM839 421l-39 -38l-360 294l-360 -294l-39 38l379 379h40z" />
<glyph unicode="&#xe001;" d="M800 737l39 -38l-379 -379h-40l-379 379l39 38l360 -294zM800 337l39 -38l-379 -379h-40l-379 379l39 38l360 -294z" />
<glyph unicode="&#xe002;" d="M839 536l39 -38l-418 -418h-40l-418 418l39 38l399 -336z" />
<glyph unicode="&#xe003;" d="M41 184l-39 38l418 418h40l418 -418l-39 -38l-399 336z" />
<glyph unicode="&#xe004;" horiz-adv-x="960" d="M417 -78l-417 418v40l417 418l39 -39l-300 -359h765v-80h-765l300 -359z" />
<glyph unicode="&#xe005;" horiz-adv-x="960" d="M960 380v-40l-417 -418l-39 39l300 359h-765v80h765l-300 359l39 39z" />
<glyph unicode="&#xe006;" d="M817 0l-38 -39l-379 379v40l379 379l38 -39l-294 -360zM417 0l-38 -39l-379 379v40l379 379l38 -39l-294 -360z" />
<glyph unicode="&#xe007;" d="M101 -39l-38 39l294 360l-294 360l38 39l379 -379v-40zM501 -39l-38 39l294 360l-294 360l38 39l379 -379v-40z" />
<glyph unicode="&#xe008;" d="M680 8q30 0 51.5 21.5t21.5 50.5q0 30 -21.5 51t-51.5 21q-29 0 -50.5 -21t-21.5 -51q0 -29 21.5 -50.5t50.5 -21.5zM680 712q-30 0 -51 -20.5t-21 -50.5t21.5 -51.5t50.5 -21.5q30 0 51.5 21.5t21.5 51.5t-21.5 50.5t-51.5 20.5zM680 200q50 0 85 -35t35 -85t-35 -85 t-85 -35t-84.5 35t-34.5 85q0 11 1 15l-358 179q-34 -33 -83 -33q-51 0 -86 34.5t-35 84.5t35 85.5t86 35.5q45 0 83 -35l358 179q-1 4 -1 16q0 49 34.5 84t84.5 35t85 -34.5t35 -84.5t-35 -85.5t-85 -35.5q-44 0 -82 33l-359 -178q1 -3 1 -15t-1 -15l359 -178q38 33 82 33z " />
<glyph unicode="&#xe009;" d="M400 669l-143 -109l-35 35l204 205h28l205 -205l-36 -35l-143 109v-349h-80v349zM800 400l40 40h40v-399l-41 -41h-800l-39 41v399h40l40 -40v-320h720v320z" />
<glyph unicode="&#xe00a;" d="M615 -14l-39 -38l-416 416v42l416 416l39 -38l-333 -399z" />
<glyph unicode="&#xe00b;" d="M304 -52l-39 38l333 399l-333 399l39 38l416 -416v-42z" />
<glyph unicode="&#xe00c;" d="M880 383q0 -183 -132 -313q24 50 24 105q0 89 -48.5 130.5t-150.5 41.5h-217q-17 0 -30 12t-13 28q0 23 28 44q35 -12 99 -12q118 0 189.5 55.5t70.5 152.5q-1 109 -86 160q119 -51 192.5 -160t73.5 -244zM256 784q-79 -58 -79 -158q0 -105 100 -172l3 -2 q-104 -70 -104 -141q0 -38 24.5 -67.5t71.5 -40.5q-145 -27 -145 -121v-6q-127 132 -127 307q0 131 70.5 238.5t185.5 162.5zM361 167h163q40 0 62.5 -19t22.5 -50q0 -84 -165 -84q-80 0 -116.5 23t-36.5 59q0 29 16 50t54 21zM519 626q0 -82 -20 -107.5t-59 -25.5t-59 24.5 t-20 108.5t20.5 111.5t58.5 27.5q39 0 59 -28t20 -111z" />
<glyph unicode="&#xe00d;" horiz-adv-x="1040" d="M338 629l-105 -307h210l-100 307h-5zM317 758h84l224 -656l70 -17v-45h-264v43l82 19l-58 178h-238l-58 -178l83 -19v-43h-227v45l72 17zM766 456l-72 -215h144l-69 215h-3zM810 547l159 -462l49 -14v-31h-187v31l59 14l-40 120h-170v-2l-26 69l96 275h60z" />
<glyph unicode="&#xe00e;" d="M421 629l-105 -309h208l-98 309h-5zM98 40v43l70 18l231 657h86l221 -657l73 -18v-43h-265v41l81 20l-57 177h-237l-60 -177l84 -20v-41h-227z" />
<glyph unicode="&#xe00f;" d="M436 564l-74 -218h148l-70 218h-4zM204 140v31l52 13l165 473h62l160 -473l51 -13v-31h-191v31l59 13l-40 124h-173l-42 -124l61 -13v-31h-164z" />
<glyph unicode="&#xe010;" d="M680 -80l-20 -20l-220 130l-220 -130l-20 20v820l60 60h360l60 -60v-820z" />
<glyph unicode="&#xe014;" d="M624 160l34 -36l-204 -204h-28l-204 204l34 36l144 -110v230h80v-230zM400 671l-144 -110l-34 34l204 205h28l204 -205l-34 -34l-144 110v-231h-80v231z" />
<glyph unicode="&#xe015;" d="M209 400l110 -145l-36 -35l-204 205v27l206 205l34 -36l-110 -141h490l41 -41v-339h-80v300h-451z" />
<glyph unicode="&#xe01b;" d="M270 560q0 -70 50 -120t120 -50t120 50t50 120t-50 120t-120 50t-120 -50t-50 -120zM680 560q0 -52 -20 -106l-200 -534h-40l-198 536q-22 59 -22 104q0 99 70.5 169.5t169.5 70.5t169.5 -70.5t70.5 -169.5z" />
<glyph unicode="&#xe01d;" d="M650 514l180 -24v-50h-291l-19 19v290h50l24 -180l229 231l57 -57zM230 207l-179 23v50h290l19 -19v-290h-50l-23 180l-230 -231l-56 57z" />
<glyph unicode="&#xe01e;" d="M650 514l180 -24v-50h-291l-19 19v290h50l24 -180l229 231l57 -57zM230 207l-179 23v50h290l19 -19v-290h-50l-23 180l-230 -231l-56 57z" />
<glyph unicode="&#xe01f;" d="M650 514l180 -24v-50h-291l-19 19v290h50l24 -180l229 231l57 -57zM230 207l-179 23v50h290l19 -19v-290h-50l-23 180l-230 -231l-56 57z" />
<glyph unicode="&#xe020;" d="M750 726l-180 24v50h290l20 -20v-290h-50l-24 179l-230 -229l-56 57zM130 -6l179 -24v-50h-290l-19 20v290h50l23 -179l231 229l55 -55z" />
<glyph unicode="&#xe021;" d="M700 320l21 -40l-60 -360h-281l-40 119l-169 187v26l48 49l135 -73l45 412h81l10 -270zM440 732q-157 0 -287 -99l-21 21q56 68 136 107.5t172 39.5t172 -39.5t136 -107.5l-21 -21q-130 99 -287 99z" />
<glyph unicode="&#xe029;" horiz-adv-x="622" d="M488 266q56 0 95 -39t39 -93q0 -56 -40.5 -95t-96.5 -39q-68 0 -111.5 49.5t-43.5 113.5q0 94 67.5 201.5t169.5 168.5l17 -16l-177 -270l5 -5q32 24 76 24zM158 266q56 0 95 -39t39 -93q0 -56 -40.5 -95t-96.5 -39q-68 0 -111.5 49.5t-43.5 113.5q0 94 67.5 201.5 t169.5 168.5l17 -16l-177 -270l5 -5q32 24 76 24z" />
<glyph unicode="&#xe02d;" d="M500 120q0 25 -17.5 42.5t-42.5 17.5t-42.5 -17.5t-17.5 -42.5t17.5 -42.5t42.5 -17.5t42.5 17.5t17.5 42.5zM380 660l29 -380h61l29 380l-40 40h-39zM880 360q0 -182 -129 -311t-311 -129t-311 129t-129 311t129 311t311 129t311 -129t129 -311z" />
<glyph unicode="&#xe02e;" d="M390 345l51 -51l279 26v40l-232 14l-29 346h-39zM880 360q0 -182 -129 -311t-311 -129t-311 129t-129 311t129 311t311 129t311 -129t129 -311z" />
<glyph unicode="&#xe032;" d="M492 338l227 227l-13 12l-226 -227l-14 15l340 339l56 -56l-339 -340zM759 320l-39 -40v-200h-640v400h280l40 40v40h-361l-39 -40v-479l39 -41h720l41 41v279h-41zM508 294l-76 -34l-15 14l34 76z" />
<glyph unicode="&#xe036;" d="M258 301l-241 177l12 38h299l91 283h42l92 -283h298l12 -38l-241 -177l93 -284l-33 -24l-242 177l-242 -177l-31 24z" />
<glyph unicode="&#xe037;" d="M720 300l80 -300l-41 -40h-640l-39 40l79 300l41 41q116 39 240 39q115 0 240 -39zM440 460q-53 0 -105.5 55.5t-52.5 126.5q0 75 41.5 116.5t116.5 41.5t117 -41.5t42 -116.5q0 -72 -51 -127t-108 -55z" />
<glyph unicode="&#xe038;" d="M600 240h41l239 -239l-81 -81l-239 239v41zM320 719q-100 0 -169.5 -69.5t-69.5 -169.5q0 -99 70 -169.5t169 -70.5t169.5 70.5t70.5 169.5t-70.5 169t-169.5 70zM320 800q132 0 225.5 -94t93.5 -226q0 -133 -93 -226t-226 -93t-226.5 93t-93.5 226q0 132 94 226t226 94z " />
<glyph unicode="&#xe039;" d="M480 450h-320v60h320v-60zM600 240h41l239 -239l-81 -81l-239 239v41zM320 719q-100 0 -169.5 -69.5t-69.5 -169.5q0 -99 70 -169.5t169 -70.5t169.5 70.5t70.5 169.5t-70.5 169t-169.5 70zM320 800q132 0 225.5 -94t93.5 -226q0 -133 -93 -226t-226 -93t-226.5 93 t-93.5 226q0 132 94 226t226 94z" />
<glyph unicode="&#xe03a;" d="M290 510v130h60v-130h130v-60h-130v-130h-60v130h-130v60h130zM600 240h41l239 -239l-81 -81l-239 239v41zM320 800q132 0 225.5 -94t93.5 -226q0 -133 -93 -226t-226 -93t-226.5 93t-93.5 226q0 132 94 226t226 94zM320 719q-100 0 -169.5 -69.5t-69.5 -169.5 q0 -99 70 -169.5t169 -70.5t169.5 70.5t70.5 169.5t-70.5 169t-169.5 70z" />
<glyph unicode="&#xe03c;" d="M660 600l60 -60v-360l-60 -60h-340l-121 -200h-39v200h-101l-59 60v360l60 60h600z" />
<glyph unicode="&#xe03d;" d="M750 530v-130h-60v130h-130v60h130v130h60v-130h130v-60h-130zM480 560q0 20 3 40h-423l-60 -60v-360l59 -60h101v-200h39l121 200h340l60 60v140q-99 0 -169.5 70.5t-70.5 169.5z" />
<glyph unicode="&#xe03e;" d="M720 280l39 40h41v-279l-41 -41h-720l-39 41v479l39 40h361v-40l-41 -40h-279v-400h640v200zM749 647l-179 23v50h291l19 -19v-291h-50l-24 181l-230 -231l-56 57z" />
<glyph unicode="&#xe040;" d="M441 79q117 0 200 83t83 200t-83 200t-200 83t-200 -83t-83 -200t83 -200t200 -83zM878 292l-89 -19q-9 -41 -37 -94l47 -76q-43 -57 -99 -99l-76 49q-45 -25 -94 -41l-19 -85q-40 -7 -70 -7q-33 0 -70 7l-19 87q-54 15 -94 39l-76 -49q-60 45 -99 99l49 77 q-24 38 -39 93l-87 19q-7 37 -7 70q0 30 7 70l87 19q13 49 39 94l-49 76q42 56 99 99l76 -47q53 28 94 37l19 89q21 3 70 3q35 0 70 -3l19 -89q31 -7 94 -37l76 47q56 -44 99 -99l-47 -76q29 -56 37 -94l89 -19q3 -34 3 -70t-3 -70z" />
<glyph unicode="&#xe043;" d="M620 420l200 200h60v-520h-60l-200 200v120zM0 560l80 80h460v-560h-460l-80 80v400z" />
<glyph unicode="&#xe044;" d="M440 191q75 0 128 52.5t53 126.5q0 75 -53 127.5t-128 52.5t-127.5 -52.5t-52.5 -127.5q0 -74 52.5 -126.5t127.5 -52.5zM821 641l59 -60v-439l-59 -62h-761l-60 59v442l60 60h199l100 100h161l100 -100h201z" />
<glyph unicode="&#xe045;" d="M440 800q182 0 311 -128.5t129 -311.5q0 -181 -129 -309.5t-311 -128.5q-99 0 -185.5 40t-147.5 111l-25 -151h-49v264l19 19h256v-50l-145 -24q109 -130 277 -130q148 0 253.5 105.5t105.5 253.5q0 149 -105.5 255t-253.5 106q-90 0 -167 -41t-127 -112l-27 -7l-35 21 l-5 27q60 88 155 139.5t206 51.5z" />
<glyph unicode="&#xe046;" horiz-adv-x="960" d="M578 206l136 154l-136 154l29 29l153 -137l154 137l29 -29l-137 -154l137 -154l-29 -29l-154 137l-153 -137zM440 720h40v-720h-40l-210 210h-150l-40 40v220l40 40h150z" />
<glyph unicode="&#xe047;" d="M604 360q0 96 -51 169l26 26q81 -81 81 -195q0 -113 -81 -194l-26 26q51 74 51 168zM812 360q0 161 -100 288l22 21q68 -56 107 -136.5t39 -172.5t-39 -172t-107 -136l-22 21q100 127 100 287zM400 720h40v-720h-40l-210 210h-150l-40 40v220l40 40h150z" />
<glyph unicode="&#xe048;" d="M260 160q0 41 -29.5 70.5t-70.5 29.5q-42 0 -71 -29t-29 -71t29 -71t71 -29q41 0 70.5 29.5t29.5 70.5zM840 160h-40q0 130 -51 248.5t-136.5 204t-204 136.5t-248.5 51v41q146 22 282.5 -25.5t230.5 -142t141.5 -231t25.5 -282.5zM160 520v40q91 16 173 -9.5t137 -80 t80.5 -136.5t9.5 -174h-40q0 149 -105.5 254.5t-254.5 105.5zM320 160q0 -67 -46.5 -113.5t-113.5 -46.5t-113.5 46.5t-46.5 113.5t46.5 113.5t113.5 46.5t113.5 -46.5t46.5 -113.5z" />
<glyph unicode="&#xe049;" d="M840 160h-40q0 130 -51 248.5t-136.5 204t-204 136.5t-248.5 51v41q146 22 282.5 -25.5t230.5 -142t141.5 -231t25.5 -282.5zM160 520v40q91 16 173 -9.5t137 -80t80.5 -136.5t9.5 -174h-40q0 149 -105.5 254.5t-254.5 105.5zM320 160q0 -67 -46.5 -113.5t-113.5 -46.5 t-113.5 46.5t-46.5 113.5t46.5 113.5t113.5 46.5t113.5 -46.5t46.5 -113.5z" />
<glyph unicode="&#xe04a;" d="M880 160v-80h-880v80h880zM880 400v-80h-880v80h880zM880 640v-80h-880v80h880z" />
<glyph unicode="&#xe04b;" d="M766 399v-28l-624 -256l-23 16v508l23 18z" />
<glyph unicode="&#xe04c;" d="M720 600v-480l-40 -40h-480l-40 40v480l40 40h480z" />
<glyph unicode="&#xe04d;" d="M520 80v560h160v-520l-40 -40h-120zM360 640v-560h-160v520l40 40h120z" />
<glyph unicode="&#xe04e;" horiz-adv-x="960" d="M562 665l398 -265v-30l-398 -265l-22 17v526zM104 665l397 -265v-30l-397 -265l-23 17v526z" />
<glyph unicode="&#xe04f;" d="M729 27l-289 265l-290 -264l-43 43l265 289l-265 289l43 43l290 -264l289 265l43 -43l-264 -290l264 -290z" />
<glyph unicode="&#xe050;" d="M409 -80l-17 392l-392 18v61l392 17l17 392h61l18 -392l392 -17v-61l-392 -18l-18 -392h-61z" />
<glyph unicode="&#xe051;" d="M836 554l-303 -194l303 -194l-29 -52l-321 166l-16 -360h-60l-16 360l-319 -166l-31 52l305 194l-305 194l31 53l319 -166l16 359h60l16 -360l321 167z" />
<glyph unicode="&#xe056;" d="M614 247v49l-208 12l-22 267h-49l-25 -307l50 -42zM359 641q149 0 255 -106t106 -255t-106 -254.5t-255 -105.5t-254 105.5t-105 254.5t105 255t254 106z" />
<glyph unicode="&#xe060;" d="M0 340v100h880v-100h-880z" />
<glyph unicode="&#xe061;" d="M669 399l-110 144l36 35l204 -205v-27l-206 -205l-34 36l110 143h-549l-41 41v218h81v-180h509z" />
<glyph unicode="&#xe062;" d="M831 592l-572 -592h-19l-200 280l40 40l179 -171l532 482z" />
<glyph unicode="&#xe063;" d="M760 40l-40 -40h-180v260h-200v-260h-180l-40 40v425l296 295h48l296 -295v-425z" />
<glyph unicode="&#xe064;" d="M790 610v-130h-60v130h-130v60h130v130h60v-130h130v-60h-130zM520 641q0 24 5 51l-69 68h-40l-296 -295v-425l40 -40h180v260h200v-260h180l40 40v360q-98 0 -169 71t-71 170z" />
<glyph unicode="&#xe065;" d="M802 640l92 -92l-42 -42l-92 92l-92 -92l-42 42l92 92l-92 92l42 42l92 -92l92 92l42 -42zM520 641q0 24 5 51l-69 68h-40l-296 -295v-425l40 -40h180v260h200v-260h180l40 40v360q-98 0 -169 71t-71 170z" />
<glyph unicode="&#xe066;" d="M420 841h40l418 -417l-39 -39l-359 300v-765h-80v765l-359 -300l-39 39z" />
<glyph unicode="&#xe067;" d="M519 130q0 -32 -24 -55.5t-57 -23.5q-32 0 -55.5 23.5t-23.5 55.5q0 33 23.5 56.5t55.5 23.5q34 0 57.5 -23.5t23.5 -56.5zM400 290l-29 379l29 31h81l29 -31l-30 -379h-80z" />
<glyph unicode="&#xe068;" d="M640 480h-80v80h80v-80zM320 480h-80v80h80v-80zM640 320h-80v80h80v-80zM320 320h-80v80h80v-80zM640 160h-80v80h80v-80zM320 160h-80v80h80v-80zM640 0h-80v80h80v-80zM320 0h-80v80h80v-80zM640 640h-80v80h80v-80zM320 640h-80v80h80v-80z" />
<glyph unicode="&#xe069;" d="M265 14q175 0 175 119q0 22 -11 41t-22.5 29t-35.5 27t-32 23q-24 6 -61 8q-69 3 -123 -35.5t-54 -89.5q0 -54 46 -88t118 -34zM287 421q47 0 75 42.5t18 103.5q-11 62 -45.5 107t-87.5 45q-48 0 -75 -41.5t-19 -103.5q8 -64 46.5 -108.5t87.5 -44.5zM502 141 q0 -72 -64.5 -129t-172.5 -57q-105 0 -178 44t-73 110q0 69 69.5 122.5t169.5 53.5h43q-35 27 -35 68q0 25 12 44h-22q-81 0 -133.5 51.5t-52.5 125.5q0 71 65.5 125t147.5 54h243l-54 -28h-77q37 -20 57 -59t20 -88q0 -75 -68 -133q-29 -24 -38 -36.5t-9 -31.5 q0 -20 15.5 -38t37.5 -34.5t44 -36.5t37.5 -53t15.5 -74zM852 423v-55h-110v-110h-55v110h-110v55h110v110h55v-110h110z" />
<glyph unicode="&#xe06a;" d="M467 -80h-165v412h-137v138h137v125q0 96 57 150.5t148 54.5q48 0 120 -7l5 -131h-82q-83 0 -83 -82v-110h165l-30 -138h-135v-412z" />
<glyph unicode="&#xe06b;" d="M880 629q-36 -53 -91 -94q0 -3 1 -11t1 -12q0 -72 -21 -144.5t-65 -138.5t-104 -117t-144 -81.5t-180 -30.5q-158 0 -277 79q6 -1 20.5 -1t22.5 -2q132 2 223 79q-59 0 -104 34.5t-64 89.5q35 -9 82 3q-63 15 -104.5 63t-41.5 116q14 -7 43 -15t40 -6q-37 22 -59 63.5 t-22 86.5q0 41 24 91q152 -177 373 -189q-5 14 -5 41q0 73 53 126.5t127 53.5q77 0 133 -56q31 2 115 43q-20 -66 -81 -100q53 7 105 29z" />
<glyph unicode="&#xe070;" d="M460 -40l-31 2l-95 326l-304 76l-2 27l724 329l28 -28z" />
<glyph unicode="&#xe071;" d="M480 220v60h-280v-60h280zM680 340v60h-480v-60h480zM680 460v60h-480v-60h480zM760 600v-600l-39 -40h-561l-40 40v720l40 40h441z" />
<glyph unicode="&#xe072;" d="M761 560l93 -93l-42 -41l-93 92l-92 -92l-42 43l92 92l-91 91l41 42l91 -92l93 93l43 -42zM550 390q-42 42 -59.5 97.5t-7.5 112.5h-423l-60 -60v-360l59 -60h101v-200h39l121 200h340l60 60v140q-100 0 -170 70z" />
<glyph unicode="&#xe073;" d="M750 320v60l-254 14l-27 326h-60l-30 -375l61 -51zM440 800q182 0 311 -129t129 -311t-129 -311t-312 -129q-182 0 -310.5 129t-128.5 311t129 311t311 129z" />
<glyph unicode="&#xe074;" d="M519 130q0 33 -23.5 56.5t-57.5 23.5q-32 0 -55.5 -23.5t-23.5 -56.5q0 -32 23.5 -55.5t55.5 -23.5q33 0 57 23.5t24 55.5zM371 669l29 -379h80l30 379l-29 31h-81zM878 360q0 -182 -128.5 -311t-311.5 -129q-181 0 -309.5 129t-128.5 311t128.5 311t309.5 129 q183 0 311.5 -129t128.5 -311z" />
<glyph unicode="&#xe075;" d="M400 570l-172 -138l-35 35l233 234h28l234 -234l-36 -35l-172 138v-430h-80v430z" />
<glyph unicode="&#xe076;" horiz-adv-x="960" d="M440 720v-80h-400v80h400zM480 400v-80h-440v80h440zM360 240v-80h-320v80h320zM400 560v-80h-360v80h360zM760 631v-542l143 111l35 -36l-204 -204h-28l-206 204l36 36l144 -111v542l-144 -111l-36 36l206 204h28l204 -204l-35 -36z" />
<glyph unicode="&#xe077;" d="M257 560l143 -109v349h80v-349l143 109l36 -35l-205 -205h-28l-204 205zM800 80v320l40 40h40v-399l-41 -41h-800l-39 41v399h40l40 -40v-320h720z" />
<glyph unicode="&#xe078;" d="M520 417l229 230l-179 23v50h291l19 -19v-291h-50l-24 181l-230 -231zM400 560v-80h-400v80h400zM560 240v-80h-560v80h560zM400 80v-80h-400v80h400zM320 400v-80h-320v80h320z" />
<glyph unicode="&#xe079;" d="M740 80v240h-60v-240h60zM800 340v-100h80v-80h-80v-100l-40 -40h-101l-39 40v100h-620v80h620v101l39 39h101zM280 400v240h-60v-240h60zM340 560h540v-80h-540v-100l-40 -40h-100l-40 40v100h-160v80h160v100l40 40h100l40 -40v-100z" />
<glyph unicode="&#xe080;" d="M760 40l-40 -40h-560l-40 40v425l296 295h48l296 -295v-425zM439 185q-47 0 -80.5 34t-33.5 80q0 49 33 82.5t81 33.5q50 0 83 -33t33 -83q0 -46 -33.5 -80t-82.5 -34zM628 253l49 8q0 5 1.5 18t1.5 20q0 9 -1.5 22.5t-1.5 17.5l-49 11q-4 23 -19 50l26 42q-27 34 -54 53 l-41 -26q-27 15 -52 19l-9 49q-21 3 -40 3q-17 0 -38 -3l-9 -49q-25 -4 -52 -19l-40 26q-26 -17 -55 -53l26 -42q-14 -24 -19 -50l-49 -11q0 -4 -1.5 -17.5t-1.5 -22.5q0 -7 1.5 -20t1.5 -18l49 -8q3 -19 19 -53l-26 -39q22 -31 55 -56l40 26q21 -12 52 -19l9 -49 q5 0 18 -1.5t20 -1.5q9 0 22.5 1.5t17.5 1.5l9 49q31 7 52 19l41 -26q32 24 54 56l-26 39q15 27 19 53z" />
<glyph unicode="&#xe081;" d="M460 380h280v280h-280v-280zM420 380v280h-280v-280h280zM420 60v280h-280v-280h280zM800 700v-680l-20 -20h-680l-20 20v680l20 20h680zM211 534h20v-16h-62v16h20v73l-21 -3v14l31 14h12v-98z" />
<glyph unicode="&#xe082;" d="M460 380h280v280h-280v-280zM420 380v280h-280v-280h280zM420 60v280h-280v-280h280zM572 152l-73 73l-29 -30l85 -136h31l214 216v-255l-20 -20h-680l-20 20v680l20 20h680l20 -20v-366zM211 534h20v-16h-62v16h20v73l-21 -3v14l31 14h12v-98z" />
<glyph unicode="&#xe083;" d="M800 560l-60 -60v-120h-120l-200 -201v-119h-120l-60 -60h540l20 20v540zM80 160l60 60v120h119l41 40h-160v280h280v-160l40 41v119h120l60 60h-540l-20 -20v-540zM827 690l-717 -717l-57 57l718 717zM232 534h-19v98h-14l-31 -14v-14l22 3v-73h-19v-16h61v16z" />
<glyph unicode="&#xe084;" horiz-adv-x="960" d="M911 518l29 -30l-251 -269h-19l-93 156l29 29l75 -80zM100 160h380v400h-380v-400zM540 160h280v-60h-760l-20 20v480l20 20h760v-60h-280v-400zM199 523v-132h25v-21h-82v21h26v97l-28 -3v18l41 20h18z" />
<glyph unicode="&#xe085;" d="M184 391h-25v132h-18l-41 -20v-18l28 3v-97h-26v-21h82v21zM807 690l-717 -717l-56 57l716 717zM500 160v120l-60 -60v-60h-60l-61 -60h561v60h-380zM9 110l51 50v400h380v-19l80 79h-501l-19 -20v-480zM880 620h-40l-60 -60h100v60z" />
<glyph unicode="&#xe086;" d="M60 160h380v400h-380v-400zM500 160h300v-60h-781l-19 20v480l19 20h781v-60h-300v-400zM626 338l-77 56l5 13h95l30 91h12l30 -91h95l4 -13l-78 -56l30 -91l-10 -8l-78 57l-77 -57l-10 8zM191 338l-77 56l4 13h95l29 91h14l29 -91h96l3 -13l-77 -56l30 -91l-11 -8 l-77 57l-77 -57l-11 8z" />
<glyph unicode="&#xe087;" horiz-adv-x="960" d="M830 370v-130h-60v130h-130v60h130v130h60v-130h130v-60h-130zM440 460q-53 0 -105.5 55.5t-52.5 126.5q0 75 41.5 116.5t116.5 41.5t117 -41.5t42 -116.5q0 -72 -51 -127t-108 -55zM440 380q68 0 121 -10q8 -77 63 -134.5t132 -71.5l44 -164l-41 -40h-640l-39 40l79 300 l41 41q116 39 240 39z" />
<glyph unicode="&#xe088;" horiz-adv-x="960" d="M842 400l92 -92l-42 -42l-92 92l-92 -92l-42 42l92 92l-92 92l42 42l92 -92l92 92l42 -42zM440 460q-53 0 -105.5 55.5t-52.5 126.5q0 75 41.5 116.5t116.5 41.5t117 -41.5t42 -116.5q0 -72 -51 -127t-108 -55zM440 380q68 0 121 -10q8 -77 63 -134.5t132 -71.5l44 -164 l-41 -40h-640l-39 40l79 300l41 41q116 39 240 39z" />
<glyph unicode="&#xe089;" d="M762 560l92 -92l-42 -42l-92 92l-92 -92l-42 42l92 92l-92 92l42 42l92 -92l92 92l42 -42zM480 560q0 20 3 40h-423l-60 -60v-360l59 -60h101v-200h39l121 200h340l60 60v140q-99 0 -169.5 70.5t-70.5 169.5z" />
<glyph unicode="&#xe090;" horiz-adv-x="1040" d="M620 360q0 41 -29.5 70.5t-70.5 29.5q-42 0 -71 -29t-29 -71t29 -71t71 -29q41 0 70.5 29.5t29.5 70.5zM680 360q0 -67 -46.5 -113.5t-113.5 -46.5t-113.5 46.5t-46.5 113.5t46.5 113.5t113.5 46.5t113.5 -46.5t46.5 -113.5zM243 360q0 -94 52 -168l-27 -26 q-80 80 -80 194q0 119 80 194l27 -25q-52 -76 -52 -169zM100 360q0 -157 99 -287l-21 -21q-68 56 -107 136t-39 172t39 172t107 136l21 -21q-99 -130 -99 -287zM797 360q0 92 -51 169l25 25q81 -76 81 -194q0 -113 -81 -194l-25 26q51 75 51 168zM938 360q0 163 -99 287 l23 21q68 -56 107 -136t39 -172t-39 -172t-107 -136l-23 21q99 124 99 287z" />
<glyph unicode="&#xe091;" horiz-adv-x="1040" d="M680 360q0 -67 -46.5 -113.5t-113.5 -46.5t-113.5 46.5t-46.5 113.5t46.5 113.5t113.5 46.5t113.5 -46.5t46.5 -113.5zM243 360q0 -94 52 -168l-27 -26q-80 80 -80 194q0 119 80 194l27 -25q-52 -76 -52 -169zM100 360q0 -157 99 -287l-21 -21q-68 56 -107 136t-39 172 t39 172t107 136l21 -21q-99 -130 -99 -287zM797 360q0 92 -51 169l25 25q81 -76 81 -194q0 -113 -81 -194l-25 26q51 75 51 168zM938 360q0 163 -99 287l23 21q68 -56 107 -136t39 -172t-39 -172t-107 -136l-23 21q99 124 99 287z" />
<glyph horiz-adv-x="0" />
<glyph horiz-adv-x="290" />
<glyph horiz-adv-x="0" />
</font>
</defs>
</svg>
